ModelForces
version=1
nRows=4
nColumns=157
inDegrees=no

This file contains the forces exerted on a model during a simulation.

A force is a generalized force, meaning that it can be either a force (N) or a torque (Nm).

Units are S.I. units (second, meters, Newtons, ...)
Angles are in degrees.

endheader
time	glut_med1_r	glut_med2_r	glut_med3_r	glut_min1_r	glut_min2_r	glut_min3_r	semimem_r	semiten_r	bifemlh_r	bifemsh_r	sar_r	add_long_r	add_brev_r	add_mag1_r	add_mag2_r	add_mag3_r	tfl_r	pect_r	grac_r	glut_max1_r	glut_max2_r	glut_max3_r	iliacus_r	psoas_r	quad_fem_r	gem_r	peri_r	rect_fem_r	vas_med_r	vas_int_r	vas_lat_r	med_gas_r	lat_gas_r	soleus_r	tib_post_r	flex_dig_r	flex_hal_r	tib_ant_r	per_brev_r	per_long_r	per_tert_r	ext_dig_r	ext_hal_r	glut_med1_l	glut_med2_l	glut_med3_l	glut_min1_l	glut_min2_l	glut_min3_l	semimem_l	semiten_l	bifemlh_l	bifemsh_l	sar_l	add_long_l	add_brev_l	add_mag1_l	add_mag2_l	add_mag3_l	tfl_l	pect_l	grac_l	glut_max1_l	glut_max2_l	glut_max3_l	iliacus_l	psoas_l	quad_fem_l	gem_l	peri_l	rect_fem_l	vas_med_l	vas_int_l	vas_lat_l	med_gas_l	lat_gas_l	soleus_l	tib_post_l	flex_dig_l	flex_hal_l	tib_ant_l	per_brev_l	per_long_l	per_tert_l	ext_dig_l	ext_hal_l	ercspn_r	ercspn_l	intobl_r	intobl_l	extobl_r	extobl_l	femur_lat_meniscii_r.femur_lat_r.force.X	femur_lat_meniscii_r.femur_lat_r.force.Y	femur_lat_meniscii_r.femur_lat_r.force.Z	femur_lat_meniscii_r.femur_lat_r.torque.X	femur_lat_meniscii_r.femur_lat_r.torque.Y	femur_lat_meniscii_r.femur_lat_r.torque.Z	femur_lat_meniscii_r.meniscus_lat_r.force.X	femur_lat_meniscii_r.meniscus_lat_r.force.Y	femur_lat_meniscii_r.meniscus_lat_r.force.Z	femur_lat_meniscii_r.meniscus_lat_r.torque.X	femur_lat_meniscii_r.meniscus_lat_r.torque.Y	femur_lat_meniscii_r.meniscus_lat_r.torque.Z	femur_med_meniscii_r.femur_med_r.force.X	femur_med_meniscii_r.femur_med_r.force.Y	femur_med_meniscii_r.femur_med_r.force.Z	femur_med_meniscii_r.femur_med_r.torque.X	femur_med_meniscii_r.femur_med_r.torque.Y	femur_med_meniscii_r.femur_med_r.torque.Z	femur_med_meniscii_r.meniscus_med_r.force.X	femur_med_meniscii_r.meniscus_med_r.force.Y	femur_med_meniscii_r.meniscus_med_r.force.Z	femur_med_meniscii_r.meniscus_med_r.torque.X	femur_med_meniscii_r.meniscus_med_r.torque.Y	femur_med_meniscii_r.meniscus_med_r.torque.Z	femur_med_tibia_r.tibia_upper_r.force.X	femur_med_tibia_r.tibia_upper_r.force.Y	femur_med_tibia_r.tibia_upper_r.force.Z	femur_med_tibia_r.tibia_upper_r.torque.X	femur_med_tibia_r.tibia_upper_r.torque.Y	femur_med_tibia_r.tibia_upper_r.torque.Z	femur_med_tibia_r.femur_med_r.force.X	femur_med_tibia_r.femur_med_r.force.Y	femur_med_tibia_r.femur_med_r.force.Z	femur_med_tibia_r.femur_med_r.torque.X	femur_med_tibia_r.femur_med_r.torque.Y	femur_med_tibia_r.femur_med_r.torque.Z	femur_lat_tibia_r.tibia_upper_r.force.X	femur_lat_tibia_r.tibia_upper_r.force.Y	femur_lat_tibia_r.tibia_upper_r.force.Z	femur_lat_tibia_r.tibia_upper_r.torque.X	femur_lat_tibia_r.tibia_upper_r.torque.Y	femur_lat_tibia_r.tibia_upper_r.torque.Z	femur_lat_tibia_r.femur_lat_r.force.X	femur_lat_tibia_r.femur_lat_r.force.Y	femur_lat_tibia_r.femur_lat_r.force.Z	femur_lat_tibia_r.femur_lat_r.torque.X	femur_lat_tibia_r.femur_lat_r.torque.Y	femur_lat_tibia_r.femur_lat_r.torque.Z	aACL_R	pACL_R	aPCL_R	pPCL_R	aMCL_R	mMCL_R	pMCL_R	aLCL_R	mLCL_R	pLCL_R	ground_prescribedForce_fx	ground_prescribedForce_fy	ground_prescribedForce_fz	ground_prescribedForce_px	ground_prescribedForce_py	ground_prescribedForce_pz
      0.16159880	     11.57440794	      8.45164198	      9.09152014	      3.90022681	      4.53030626	      4.91330346	      0.00000000	    154.06142527	    130.25348391	    281.07361983	    126.76060508	      8.41274779	      6.05278360	      1.71230223	      3.68629061	      6.21954528	      4.60102401	      3.29239431	     95.33536677	      5.45738131	      8.30230500	      6.24027787	     27.74257231	     18.75204127	      5.36463964	      3.68823045	      6.27126133	     51.48058066	     31.97689061	     33.56916424	     45.00803115	      0.00000000	      0.00000000	      0.00000000	      0.00000000	      0.00000000	      0.00000000	     33.80289077	      2.09736713	      2.43054401	     49.93675737	     39.27490927	     10.27246913	     11.57440794	      8.45164198	      9.09152014	      3.90022681	      4.53030626	      4.91330346	      0.00000000	      6.26803453	     12.36982332	     10.67777549	      2.22525334	      8.41274779	      6.05278360	      1.71230223	      3.68629061	      6.21954528	      5.47750386	      3.29239431	      2.29766026	      5.45738131	      8.30230500	      6.24027787	     27.74257231	     18.75204127	      5.36463964	      3.68823045	      6.27126133	     17.25426954	      0.00000000	      0.00000000	      0.00000000	     21.23541756	     10.04314587	     51.36472386	     51.28211156	      5.51626447	      4.93532655	     13.41511484	      7.18191644	     18.37043723	      2.89920652	      8.96462875	      2.81465510	     36.71261802	     36.71261802	     13.65433910	     13.65433910	     31.00151427	     31.00151427	    109.29573160	     70.24992937	     29.25830844	    -13.64232966	      2.78662354	     44.03299003	   -109.29573160	    -70.24992937	    -29.25830844	      2.50038980	     -3.55843743	     -0.55862645	     15.42807495	     15.80003083	     14.24684049	     -5.45326897	     -0.38714595	      6.33503793	    -15.42807495	    -15.80003083	    -14.24684049	     -0.00384865	      0.07648523	     -0.08093066	   -954.57265616	   -670.09391935	    297.16072031	    -17.48924336	     20.86785968	     -9.19131727	    954.57265616	    670.09391935	   -297.16072031	    133.03746604	    -16.58883913	    390.01728703	    -82.62435394	    -63.29467061	    -31.23712571	      2.37347805	     -2.77431814	     -0.65457875	     82.62435394	     63.29467061	     31.23712571	    -14.28916142	      2.00903706	     33.72304554	      0.00000000	      0.00000000	    738.57631936	    463.42456717	     39.91712843	      0.00000000	      0.00000000	      0.00000000	      0.00000000	      0.00000000	      0.00000000	      0.00000000	      0.00000000	      0.00000000	      0.00000000	      0.00000000
      0.16187239	     11.56092251	      8.44159660	      9.08058545	      3.89578034	      4.52543910	      4.90709117	      0.00000000	    154.10516420	    130.18911977	    280.96521057	    126.74624765	      8.40263408	      6.04594726	      2.01200989	      3.68183069	      6.21146485	      4.59213862	      3.28861392	     95.31810402	      5.45086798	      8.29237433	      6.23269909	     27.72404908	     18.73091535	      5.35839082	      3.68517408	      6.26869096	     51.70370078	     31.27988761	     33.41197681	     44.99923571	      0.00000000	      0.00000000	      0.00000000	      0.00000000	      0.00000000	      0.00000000	     33.84598788	      2.10483622	      2.44957213	     28.32572390	     39.26545326	     10.28911593	     11.56092251	      8.44159660	      9.08058545	      3.89578034	      4.52543910	      4.90709117	      0.00000000	      6.26011796	     12.35476931	     10.66532329	      2.22272826	      8.40263408	      6.04594726	      2.01200989	      3.68183069	      6.21146485	      5.47252834	      3.28861392	      2.29500726	      5.45086798	      8.29237433	      6.23269909	     27.72404908	     18.73091535	      5.35839082	      3.68517408	      6.26869096	     17.23098733	      0.00000000	      0.00000000	      0.00000000	     21.22979424	     10.03949598	     51.31077285	     51.25283214	      5.51032419	      4.93004108	     13.39812779	      7.17227283	     18.35262651	      2.89595246	      8.95125647	      2.81055675	     36.67066988	     36.67066988	     13.63749112	     13.63749112	     30.98623061	     30.98623061	    109.50359579	     70.77478455	     29.84392447	    -13.90488161	      2.80092839	     44.10975368	   -109.50359579	    -70.77478455	    -29.84392447	      2.53721032	     -3.58642333	     -0.53659301	     15.76770057	     15.71906172	     13.83692584	     -5.28430896	     -0.39771102	      6.47606582	    -15.76770057	    -15.71906172	    -13.83692584	     -0.01570189	      0.09386243	     -0.09132400	   -957.75861786	   -666.65853461	    294.83227117	    -17.35539489	     20.86652805	     -9.24379763	    957.75861786	    666.65853461	   -294.83227117	    132.01275722	    -16.62246282	    391.30312486	    -84.68467248	    -64.61957019	    -31.83289886	      2.41865594	     -2.84114204	     -0.66512494	     84.68467248	     64.61957019	     31.83289886	    -14.56267768	      2.05866263	     34.56012116	      0.00000000	      0.00000000	    741.49332586	    465.15211451	     40.00159252	      0.00000000	      0.00000000	      0.00000000	      0.00000000	      0.00000000	      0.00000000	      0.00000000	      0.00000000	      0.00000000	      0.00000000	      0.00000000
      0.16200000	     11.55464025	      8.43692354	      9.07549873	      3.89371181	      4.52317492	      4.90420110	      0.00000000	    154.12332242	    130.15788680	    280.91332731	    126.73931855	      8.39792927	      6.04276693	      2.13434275	      3.67975595	      6.20770584	      4.58803089	      3.28685527	     95.30931487	      5.44783806	      8.28775470	      6.22917354	     27.71543253	     18.72108815	      5.35548387	      3.68375237	      6.26748052	     51.80607835	     31.23996175	     33.39459562	     44.99213959	      0.00000000	      0.00000000	      0.00000000	      0.00000000	      0.00000000	      0.00000000	     33.86575284	      2.10830734	      2.45841963	     23.20465544	     39.34779073	     10.31012764	     11.55464025	      8.43692354	      9.07549873	      3.89371181	      4.52317492	      4.90420110	      0.00000000	      6.25643527	     12.34775739	     10.65953055	      2.22155358	      8.39792927	      6.04276693	      2.13434275	      3.67975595	      6.20770584	      5.47021363	      3.28685527	      2.29377308	      5.44783806	      8.28775470	      6.22917354	     27.71543253	     18.72108815	      5.35548387	      3.68375237	      6.26748052	     17.22015475	      0.00000000	      0.00000000	      0.00000000	     21.22713764	     10.03777866	     51.28560802	     51.23920068	      5.50754685	      4.92756616	     13.39022016	      7.16778442	     18.34432991	      2.89443875	      8.94506570	      2.80866270	     36.65115536	     36.65115536	     13.62965364	     13.62965364	     30.97912111	     30.97912111	    112.22127002	     68.30914195	     28.19115050	    -13.15967003	      2.85537701	     45.25834207	   -112.22127002	    -68.30914195	    -28.19115050	      2.42352815	     -3.61324027	     -0.68433772	     15.60964699	     15.53629874	     13.75021466	     -5.25337435	     -0.39335664	      6.41080756	    -15.60964699	    -15.53629874	    -13.75021466	     -0.01382308	      0.09115470	     -0.08987409	   -959.06524253	   -666.03339936	    294.74321260	    -17.33223961	     20.89102099	     -9.23575888	    959.06524253	    666.03339936	   -294.74321260	    131.95961025	    -16.64317025	    391.82077755	    -85.59998913	    -65.17122482	    -32.12610220	      2.43867749	     -2.87160255	     -0.67073086	     85.59998913	     65.17122482	     32.12610220	    -14.69522669	      2.08084680	     34.93243469	      0.00000000	      0.00000000	    742.86433065	    465.98505951	     40.05768753	      0.00000000	      0.00000000	      0.00000000	      0.00000000	      0.00000000	      0.00000000	      0.00000000	      0.00000000	      0.00000000	      0.00000000	      0.00000000
      0.16227359	     11.54118964	      8.42693223	      9.06462305	      3.88928903	      4.51833393	      4.89802164	      0.00000000	    154.15472751	    130.08832448	    280.80165633	    126.72135262	      8.38787015	      6.03596692	      2.36698647	      3.67532001	      6.19966878	      4.57936655	      3.28309508	     95.28671619	      5.44135997	      8.27787775	      6.22163580	     27.69701049	     18.70007787	      5.34926855	      3.68071284	      6.26486111	     52.02483682	     31.20844536	     33.37507637	     44.97425390	      0.00000000	      0.00000000	      0.00000000	      0.00000000	      0.00000000	      0.00000000	     33.90841361	      2.11527470	      2.47692843	     23.75017520	     39.53361907	     10.35639141	     11.54118964	      8.42693223	      9.06462305	      3.88928903	      4.51833393	      4.89802164	      0.00000000	      6.24856152	     12.33274659	     10.64714516	      2.21904194	      8.38787015	      6.03596692	      2.36698647	      3.67532001	      6.19966878	      5.46526436	      3.28309508	      2.29113427	      5.44135997	      8.27787775	      6.22163580	     27.69701049	     18.70007787	      5.34926855	      3.68071284	      6.26486111	     17.19699009	      0.00000000	      0.00000000	      0.00000000	     21.22137066	     10.03406537	     51.23166124	     51.21003270	      5.50157848	      4.92223960	     13.37330178	      7.15818309	     18.32656748	      2.89120246	      8.93189358	      2.80463981	     36.60943093	     36.60943093	     13.61289677	     13.61289677	     30.96392128	     30.96392128	    111.17866529	     68.81953482	     28.08143118	    -13.12716870	      2.82831231	     44.81997002	   -111.17866529	    -68.81953482	    -28.08143118	      2.43303546	     -3.58374873	     -0.62890884	     15.37414363	     15.20037731	     13.44552989	     -5.13593733	     -0.38735085	      6.31254575	    -15.37414363	    -15.20037731	    -13.44552989	     -0.01506457	      0.09090201	     -0.08754919	   -961.17152223	   -664.54063395	    295.03985369	    -17.29254374	     20.94731619	     -9.20187476	    961.17152223	    664.54063395	   -295.03985369	    132.04316114	    -16.68054304	    392.64319062	    -87.56509809	    -66.38709038	    -33.02400126	      2.49060105	     -2.94550443	     -0.68078178	     87.56509809	     66.38709038	     33.02400126	    -15.09206442	      2.13153839	     35.73059914	      0.00000000	      0.00000000	    745.86765056	    467.92600896	     40.19332304	      0.00000000	      0.00000000	      0.00000000	      0.00000000	      0.00000000	      0.00000000	      0.00000000	      0.00000000	      0.00000000	      0.00000000	      0.00000000
